<svg width="21" height="21" viewBox="0 0 21 21" fill="none" xmlns="http://www.w3.org/2000/svg">
<rect width="21" height="21" rx="4" fill="#323437"/>
<path d="M5 3.5C5 3.5 7.9614 2 10 2C12.0386 2 15 3.5 15 3.5" stroke="#E2B714" stroke-linecap="round"/>
<path d="M2.5 8.5C2.5 8.5 6.68054 4.5 10 4.5C13.3195 4.5 17.5 8.5 17.5 8.5M4 17C4 17 2.09919 12.3556 3.5 10C4.75054 7.89711 6.56501 7.23833 9 7C11.2157 6.78313 12.8408 7.01549 14.5 8.5C14.9734 8.92354 15.3903 9.57509 15.7194 10.2017C16.3272 11.3593 16.7628 12.6425 16.6833 13.9476C16.6443 14.5868 16.4708 15.208 16 15.5C14.9906 16.126 13.8992 15.7759 13 15C12.2039 14.313 12.7388 13.2483 12 12.5C11.3865 11.8786 10.8719 11.4516 10 11.5C9.02519 11.5542 8.46287 12.1404 8 13C7.3454 14.2157 7.88253 15.2651 8.5 16.5C9.37324 18.2465 12.5 19.5 12.5 19.5M10 13.5C10.5858 14.8668 10.3266 16.0865 11.5 17C12.7422 17.967 13.9379 17.3047 15.5 17.5M8 19.5C8 19.5 4.98256 15.67 5.5 13C5.85048 11.1915 6.32891 9.7751 8 9C9.80643 8.16212 11.5536 8.6314 13 10C14.0802 11.0221 14.5 13.5 14.5 13.5" stroke="#E2B714" stroke-linecap="round" stroke-linejoin="round"/>
</svg>
